<?xml version="1.0" encoding="UTF-8" standalone="no"?>
<!DOCTYPE svg PUBLIC "-//W3C//DTD SVG 1.1//EN" "http://www.w3.org/Graphics/SVG/1.1/DTD/svg11.dtd">
<svg version="1.1" xmlns="http://www.w3.org/2000/svg" xmlns:xlink="http://www.w3.org/1999/xlink" preserveAspectRatio="xMidYMid meet" viewBox="184.58139534883716 173.89853013966882 31 167.48999999999995" width="27" height="163.49">
<defs>

<path d="M185.58 174.9L212.58 174.9L212.58 338.39L185.58 338.39L185.58 174.9Z" id="boostback"></path>

<path d="M201.24 310.17C205.43 310.17 208.83 313.57 208.83 317.76C208.83 320.14 208.83 319.7 208.83 322.08C208.83 326.27 205.43 329.67 201.24 329.67C198.86 329.67 199.3 329.67 196.92 329.67C192.73 329.67 189.33 326.27 189.33 322.08C189.33 319.7 189.33 320.14 189.33 317.76C189.33 313.57 192.73 310.17 196.92 310.17C199.3 310.17 198.86 310.17 201.24 310.17Z" id="b1"></path>

<path d="M201.24 284.52C205.43 284.52 208.83 287.92 208.83 292.11C208.83 294.49 208.83 294.05 208.83 296.43C208.83 300.63 205.43 304.02 201.24 304.02C198.86 304.02 199.3 304.02 196.92 304.02C192.73 304.02 189.33 300.63 189.33 296.43C189.33 294.05 189.33 294.49 189.33 292.11C189.33 287.92 192.73 284.52 196.92 284.52C199.3 284.52 198.86 284.52 201.24 284.52Z" id="b2"></path>

<path d="M201.24 259.35C205.43 259.35 208.83 262.75 208.83 266.94C208.83 269.32 208.83 268.88 208.83 271.26C208.83 275.45 205.43 278.85 201.24 278.85C198.86 278.85 199.3 278.85 196.92 278.85C192.73 278.85 189.33 275.45 189.33 271.26C189.33 268.88 189.33 269.32 189.33 266.94C189.33 262.75 192.73 259.35 196.92 259.35C199.3 259.35 198.86 259.35 201.24 259.35Z" id="b3"></path>

<path d="M201.24 233.19C205.43 233.19 208.83 236.59 208.83 240.78C208.83 243.16 208.83 242.72 208.83 245.1C208.83 249.29 205.43 252.69 201.24 252.69C198.86 252.69 199.3 252.69 196.92 252.69C192.73 252.69 189.33 249.29 189.33 245.1C189.33 242.72 189.33 243.16 189.33 240.78C189.33 236.59 192.73 233.19 196.92 233.19C199.3 233.19 198.86 233.19 201.24 233.19Z" id="b4"></path>

<path d="M201.24 207.03C205.43 207.03 208.83 210.43 208.83 214.62C208.83 217 208.83 216.56 208.83 218.94C208.83 223.13 205.43 226.53 201.24 226.53C198.86 226.53 199.3 226.53 196.92 226.53C192.73 226.53 189.33 223.13 189.33 218.94C189.33 216.56 189.33 217 189.33 214.62C189.33 210.43 192.73 207.03 196.92 207.03C199.3 207.03 198.86 207.03 201.24 207.03Z" id="b5"></path>

<path d="M201.24 180.12C205.43 180.12 208.83 183.52 208.83 187.71C208.83 190.09 208.83 189.65 208.83 192.03C208.83 196.22 205.43 199.62 201.24 199.62C198.86 199.62 199.3 199.62 196.92 199.62C192.73 199.62 189.33 196.22 189.33 192.03C189.33 189.65 189.33 190.09 189.33 187.71C189.33 183.52 192.73 180.12 196.92 180.12C199.3 180.12 198.86 180.12 201.24 180.12Z" id="b6"></path>

</defs>

<g><g><use xlink:href="#boostback" opacity="1" fill="#000000" fill-opacity="1"></use><g><use xlink:href="#boostback" opacity="1" fill-opacity="0" stroke="#000000" stroke-width="1" stroke-opacity="1"></use></g></g><g><g><filter id="shadow4213910" x="180.33" y="301.17" width="38.5" height="38.5" filterUnits="userSpaceOnUse" primitiveUnits="userSpaceOnUse"><feFlood></feFlood><feComposite in2="SourceAlpha" operator="in"></feComposite><feGaussianBlur stdDeviation="1"></feGaussianBlur><feOffset dx="1" dy="1" result="afterOffset"></feOffset><feFlood flood-color="#000000" flood-opacity="0.5"></feFlood><feComposite in2="afterOffset" operator="in"></feComposite><feMorphology operator="dilate" radius="1"></feMorphology><feComposite in2="SourceAlpha" operator="out"></feComposite></filter><path d="M201.24 310.17C205.43 310.17 208.83 313.57 208.83 317.76C208.83 320.14 208.83 319.7 208.83 322.08C208.83 326.27 205.43 329.67 201.24 329.67C198.86 329.67 199.3 329.67 196.92 329.67C192.73 329.67 189.33 326.27 189.33 322.08C189.33 319.7 189.33 320.14 189.33 317.76C189.33 313.57 192.73 310.17 196.92 310.17C199.3 310.17 198.86 310.17 201.24 310.17Z" id="a7K1aD6p5" fill="white" fill-opacity="1" filter="url(#shadow4213910)"></path></g><use xlink:href="#b1" opacity="1" fill="#3efb00" fill-opacity="1"></use><g><use xlink:href="#b1" opacity="1" fill-opacity="0" stroke="#fbfbfb" stroke-width="2" stroke-opacity="1"></use></g><g><filter id="shadow7855423" x="180.33" y="301.17" width="38.5" height="38.5" filterUnits="userSpaceOnUse" primitiveUnits="userSpaceOnUse"><feFlood></feFlood><feComposite in2="SourceAlpha" operator="out"></feComposite><feGaussianBlur stdDeviation="1"></feGaussianBlur><feOffset dx="1" dy="1" result="afterOffset"></feOffset><feFlood flood-color="#ffffff" flood-opacity="0.8"></feFlood><feComposite in2="afterOffset" operator="in"></feComposite><feMorphology operator="dilate" radius="1"></feMorphology><feComposite in2="SourceAlpha" operator="in"></feComposite></filter><path d="M201.24 310.17C205.43 310.17 208.83 313.57 208.83 317.76C208.83 320.14 208.83 319.7 208.83 322.08C208.83 326.27 205.43 329.67 201.24 329.67C198.86 329.67 199.3 329.67 196.92 329.67C192.73 329.67 189.33 326.27 189.33 322.08C189.33 319.7 189.33 320.14 189.33 317.76C189.33 313.57 192.73 310.17 196.92 310.17C199.3 310.17 198.86 310.17 201.24 310.17Z" id="b2kDfz1EM2" fill="white" fill-opacity="1" filter="url(#shadow7855423)"></path></g></g><g><g><filter id="shadow9306405" x="180.33" y="275.52" width="38.5" height="38.5" filterUnits="userSpaceOnUse" primitiveUnits="userSpaceOnUse"><feFlood></feFlood><feComposite in2="SourceAlpha" operator="in"></feComposite><feGaussianBlur stdDeviation="1"></feGaussianBlur><feOffset dx="1" dy="1" result="afterOffset"></feOffset><feFlood flood-color="#000000" flood-opacity="0.5"></feFlood><feComposite in2="afterOffset" operator="in"></feComposite><feMorphology operator="dilate" radius="1"></feMorphology><feComposite in2="SourceAlpha" operator="out"></feComposite></filter><path d="M201.24 284.52C205.43 284.52 208.83 287.92 208.83 292.11C208.83 294.49 208.83 294.05 208.83 296.43C208.83 300.63 205.43 304.02 201.24 304.02C198.86 304.02 199.3 304.02 196.92 304.02C192.73 304.02 189.33 300.63 189.33 296.43C189.33 294.05 189.33 294.49 189.33 292.11C189.33 287.92 192.73 284.52 196.92 284.52C199.3 284.52 198.86 284.52 201.24 284.52Z" id="blALLhqTi" fill="white" fill-opacity="1" filter="url(#shadow9306405)"></path></g><use xlink:href="#b2" opacity="1" fill="#3efb00" fill-opacity="1"></use><g><use xlink:href="#b2" opacity="1" fill-opacity="0" stroke="#fbfbfb" stroke-width="2" stroke-opacity="1"></use></g><g><filter id="shadow7346342" x="180.33" y="275.52" width="38.5" height="38.5" filterUnits="userSpaceOnUse" primitiveUnits="userSpaceOnUse"><feFlood></feFlood><feComposite in2="SourceAlpha" operator="out"></feComposite><feGaussianBlur stdDeviation="1"></feGaussianBlur><feOffset dx="1" dy="1" result="afterOffset"></feOffset><feFlood flood-color="#ffffff" flood-opacity="0.8"></feFlood><feComposite in2="afterOffset" operator="in"></feComposite><feMorphology operator="dilate" radius="1"></feMorphology><feComposite in2="SourceAlpha" operator="in"></feComposite></filter><path d="M201.24 284.52C205.43 284.52 208.83 287.92 208.83 292.11C208.83 294.49 208.83 294.05 208.83 296.43C208.83 300.63 205.43 304.02 201.24 304.02C198.86 304.02 199.3 304.02 196.92 304.02C192.73 304.02 189.33 300.63 189.33 296.43C189.33 294.05 189.33 294.49 189.33 292.11C189.33 287.92 192.73 284.52 196.92 284.52C199.3 284.52 198.86 284.52 201.24 284.52Z" id="ckcXmxepZ" fill="white" fill-opacity="1" filter="url(#shadow7346342)"></path></g></g><g><g><filter id="shadow6699667" x="180.33" y="250.35" width="38.5" height="38.5" filterUnits="userSpaceOnUse" primitiveUnits="userSpaceOnUse"><feFlood></feFlood><feComposite in2="SourceAlpha" operator="in"></feComposite><feGaussianBlur stdDeviation="1"></feGaussianBlur><feOffset dx="1" dy="1" result="afterOffset"></feOffset><feFlood flood-color="#000000" flood-opacity="0.5"></feFlood><feComposite in2="afterOffset" operator="in"></feComposite><feMorphology operator="dilate" radius="1"></feMorphology><feComposite in2="SourceAlpha" operator="out"></feComposite></filter><path d="M201.24 259.35C205.43 259.35 208.83 262.75 208.83 266.94C208.83 269.32 208.83 268.88 208.83 271.26C208.83 275.45 205.43 278.85 201.24 278.85C198.86 278.85 199.3 278.85 196.92 278.85C192.73 278.85 189.33 275.45 189.33 271.26C189.33 268.88 189.33 269.32 189.33 266.94C189.33 262.75 192.73 259.35 196.92 259.35C199.3 259.35 198.86 259.35 201.24 259.35Z" id="gr7fSirRv" fill="white" fill-opacity="1" filter="url(#shadow6699667)"></path></g><use xlink:href="#b3" opacity="1" fill="#ffe700" fill-opacity="1"></use><g><use xlink:href="#b3" opacity="1" fill-opacity="0" stroke="#ffffff" stroke-width="2" stroke-opacity="1"></use></g><g><filter id="shadow11626570" x="180.33" y="250.35" width="38.5" height="38.5" filterUnits="userSpaceOnUse" primitiveUnits="userSpaceOnUse"><feFlood></feFlood><feComposite in2="SourceAlpha" operator="out"></feComposite><feGaussianBlur stdDeviation="1"></feGaussianBlur><feOffset dx="1" dy="1" result="afterOffset"></feOffset><feFlood flood-color="#ffffff" flood-opacity="0.8"></feFlood><feComposite in2="afterOffset" operator="in"></feComposite><feMorphology operator="dilate" radius="1"></feMorphology><feComposite in2="SourceAlpha" operator="in"></feComposite></filter><path d="M201.24 259.35C205.43 259.35 208.83 262.75 208.83 266.94C208.83 269.32 208.83 268.88 208.83 271.26C208.83 275.45 205.43 278.85 201.24 278.85C198.86 278.85 199.3 278.85 196.92 278.85C192.73 278.85 189.33 275.45 189.33 271.26C189.33 268.88 189.33 269.32 189.33 266.94C189.33 262.75 192.73 259.35 196.92 259.35C199.3 259.35 198.86 259.35 201.24 259.35Z" id="bson6Dp2J" fill="white" fill-opacity="1" filter="url(#shadow11626570)"></path></g></g><g><g><filter id="shadow1688522" x="180.33" y="224.19" width="38.5" height="38.5" filterUnits="userSpaceOnUse" primitiveUnits="userSpaceOnUse"><feFlood></feFlood><feComposite in2="SourceAlpha" operator="in"></feComposite><feGaussianBlur stdDeviation="1"></feGaussianBlur><feOffset dx="1" dy="1" result="afterOffset"></feOffset><feFlood flood-color="#000000" flood-opacity="0.5"></feFlood><feComposite in2="afterOffset" operator="in"></feComposite><feMorphology operator="dilate" radius="1"></feMorphology><feComposite in2="SourceAlpha" operator="out"></feComposite></filter><path d="M201.24 233.19C205.43 233.19 208.83 236.59 208.83 240.78C208.83 243.16 208.83 242.72 208.83 245.1C208.83 249.29 205.43 252.69 201.24 252.69C198.86 252.69 199.3 252.69 196.92 252.69C192.73 252.69 189.33 249.29 189.33 245.1C189.33 242.72 189.33 243.16 189.33 240.78C189.33 236.59 192.73 233.19 196.92 233.19C199.3 233.19 198.86 233.19 201.24 233.19Z" id="arBR4rsmu" fill="white" fill-opacity="1" filter="url(#shadow1688522)"></path></g><use xlink:href="#b4" opacity="1" fill="#ffe700" fill-opacity="1"></use><g><use xlink:href="#b4" opacity="1" fill-opacity="0" stroke="#ffffff" stroke-width="2" stroke-opacity="1"></use></g><g><filter id="shadow12783340" x="180.33" y="224.19" width="38.5" height="38.5" filterUnits="userSpaceOnUse" primitiveUnits="userSpaceOnUse"><feFlood></feFlood><feComposite in2="SourceAlpha" operator="out"></feComposite><feGaussianBlur stdDeviation="1"></feGaussianBlur><feOffset dx="1" dy="1" result="afterOffset"></feOffset><feFlood flood-color="#ffffff" flood-opacity="0.8"></feFlood><feComposite in2="afterOffset" operator="in"></feComposite><feMorphology operator="dilate" radius="1"></feMorphology><feComposite in2="SourceAlpha" operator="in"></feComposite></filter><path d="M201.24 233.19C205.43 233.19 208.83 236.59 208.83 240.78C208.83 243.16 208.83 242.72 208.83 245.1C208.83 249.29 205.43 252.69 201.24 252.69C198.86 252.69 199.3 252.69 196.92 252.69C192.73 252.69 189.33 249.29 189.33 245.1C189.33 242.72 189.33 243.16 189.33 240.78C189.33 236.59 192.73 233.19 196.92 233.19C199.3 233.19 198.86 233.19 201.24 233.19Z" id="amHwXqvgG" fill="white" fill-opacity="1" filter="url(#shadow12783340)"></path></g></g><g><g><filter id="shadow10434391" x="180.33" y="198.03" width="38.5" height="38.5" filterUnits="userSpaceOnUse" primitiveUnits="userSpaceOnUse"><feFlood></feFlood><feComposite in2="SourceAlpha" operator="in"></feComposite><feGaussianBlur stdDeviation="1"></feGaussianBlur><feOffset dx="1" dy="1" result="afterOffset"></feOffset><feFlood flood-color="#000000" flood-opacity="0.5"></feFlood><feComposite in2="afterOffset" operator="in"></feComposite><feMorphology operator="dilate" radius="1"></feMorphology><feComposite in2="SourceAlpha" operator="out"></feComposite></filter><path d="M201.24 207.03C205.43 207.03 208.83 210.43 208.83 214.62C208.83 217 208.83 216.56 208.83 218.94C208.83 223.13 205.43 226.53 201.24 226.53C198.86 226.53 199.3 226.53 196.92 226.53C192.73 226.53 189.33 223.13 189.33 218.94C189.33 216.56 189.33 217 189.33 214.62C189.33 210.43 192.73 207.03 196.92 207.03C199.3 207.03 198.86 207.03 201.24 207.03Z" id="bgGX6crpk" fill="white" fill-opacity="1" filter="url(#shadow10434391)"></path></g><use xlink:href="#b5" opacity="1" fill="#ffe700" fill-opacity="1"></use><g><use xlink:href="#b5" opacity="1" fill-opacity="0" stroke="#ffffff" stroke-width="2" stroke-opacity="1"></use></g><g><filter id="shadow1193162" x="180.33" y="198.03" width="38.5" height="38.5" filterUnits="userSpaceOnUse" primitiveUnits="userSpaceOnUse"><feFlood></feFlood><feComposite in2="SourceAlpha" operator="out"></feComposite><feGaussianBlur stdDeviation="1"></feGaussianBlur><feOffset dx="1" dy="1" result="afterOffset"></feOffset><feFlood flood-color="#ffffff" flood-opacity="0.8"></feFlood><feComposite in2="afterOffset" operator="in"></feComposite><feMorphology operator="dilate" radius="1"></feMorphology><feComposite in2="SourceAlpha" operator="in"></feComposite></filter><path d="M201.24 207.03C205.43 207.03 208.83 210.43 208.83 214.62C208.83 217 208.83 216.56 208.83 218.94C208.83 223.13 205.43 226.53 201.24 226.53C198.86 226.53 199.3 226.53 196.92 226.53C192.73 226.53 189.33 223.13 189.33 218.94C189.33 216.56 189.33 217 189.33 214.62C189.33 210.43 192.73 207.03 196.92 207.03C199.3 207.03 198.86 207.03 201.24 207.03Z" id="bpib7ods3" fill="white" fill-opacity="1" filter="url(#shadow1193162)"></path></g></g><g><g><filter id="shadow14835093" x="180.33" y="171.12" width="38.5" height="38.5" filterUnits="userSpaceOnUse" primitiveUnits="userSpaceOnUse"><feFlood></feFlood><feComposite in2="SourceAlpha" operator="in"></feComposite><feGaussianBlur stdDeviation="1"></feGaussianBlur><feOffset dx="1" dy="1" result="afterOffset"></feOffset><feFlood flood-color="#000000" flood-opacity="0.5"></feFlood><feComposite in2="afterOffset" operator="in"></feComposite><feMorphology operator="dilate" radius="1"></feMorphology><feComposite in2="SourceAlpha" operator="out"></feComposite></filter><path d="M201.24 180.12C205.43 180.12 208.83 183.52 208.83 187.71C208.83 190.09 208.83 189.65 208.83 192.03C208.83 196.22 205.43 199.62 201.24 199.62C198.86 199.62 199.3 199.62 196.92 199.62C192.73 199.62 189.33 196.22 189.33 192.03C189.33 189.65 189.33 190.09 189.33 187.71C189.33 183.52 192.73 180.12 196.92 180.12C199.3 180.12 198.86 180.12 201.24 180.12Z" id="aclQKivCy" fill="white" fill-opacity="1" filter="url(#shadow14835093)"></path></g><use xlink:href="#b6" opacity="1" fill="#0021ff" fill-opacity="1"></use><g><use xlink:href="#b6" opacity="1" fill-opacity="0" stroke="#ffffff" stroke-width="2" stroke-opacity="1"></use></g><g><filter id="shadow7439231" x="180.33" y="171.12" width="38.5" height="38.5" filterUnits="userSpaceOnUse" primitiveUnits="userSpaceOnUse"><feFlood></feFlood><feComposite in2="SourceAlpha" operator="out"></feComposite><feGaussianBlur stdDeviation="1"></feGaussianBlur><feOffset dx="1" dy="1" result="afterOffset"></feOffset><feFlood flood-color="#ffffff" flood-opacity="0.8"></feFlood><feComposite in2="afterOffset" operator="in"></feComposite><feMorphology operator="dilate" radius="1"></feMorphology><feComposite in2="SourceAlpha" operator="in"></feComposite></filter><path d="M201.24 180.12C205.43 180.12 208.83 183.52 208.83 187.71C208.83 190.09 208.83 189.65 208.83 192.03C208.83 196.22 205.43 199.62 201.24 199.62C198.86 199.62 199.3 199.62 196.92 199.62C192.73 199.62 189.33 196.22 189.33 192.03C189.33 189.65 189.33 190.09 189.33 187.71C189.33 183.52 192.73 180.12 196.92 180.12C199.3 180.12 198.86 180.12 201.24 180.12Z" id="b6ZtQAGURF" fill="white" fill-opacity="1" filter="url(#shadow7439231)"></path></g></g></g></svg>